<?xml version="1.0" encoding="utf-8"?>
<!-- Generator: Adobe Illustrator 16.0.0, SVG Export Plug-In . SVG Version: 6.00 Build 0)  -->
<!DOCTYPE svg PUBLIC "-//W3C//DTD SVG 1.1//EN" "http://www.w3.org/Graphics/SVG/1.1/DTD/svg11.dtd">
<svg version="1.1" id="Layer_1" xmlns="http://www.w3.org/2000/svg" xmlns:xlink="http://www.w3.org/1999/xlink" x="0px" y="0px"
	 width="298px" height="298px" viewBox="0 0 298 298" enable-background="new 0 0 298 298" xml:space="preserve">
<path fill="#FFFFFF" d="M291.828,120.859l-35.763-5.431c-1.94-6.399-4.791-12.798-8.087-19.004
	c6.593-9.116,13.699-17.648,20.293-26.569c0.97-1.357,1.517-2.715,1.517-4.459c0-1.553-0.405-3.104-1.374-4.268
	c-8.145-11.441-21.729-23.466-32.007-32.967c-1.357-1.164-3.108-1.939-4.853-1.939c-1.746,0-3.493,0.582-4.657,1.744l-27.539,20.75
	c-5.624-2.908-11.442-5.234-17.453-7.175l-5.431-35.704C176.086,2.541,172.983,0,169.492,0H126.44c-3.491,0-6.206,2.348-6.981,5.451
	c-3.103,11.637-4.266,24.252-5.624,36.08c-6.012,1.939-12.023,4.466-17.647,7.376L69.425,28.158
	c-1.552-1.164-3.297-1.938-5.042-1.938c-6.594,0-32.774,28.314-37.428,34.713c-0.97,1.357-1.746,2.716-1.746,4.462
	c0,1.745,0.775,3.296,1.939,4.653c7.175,8.728,14.157,17.455,20.75,26.762c-3.103,5.82-5.624,11.637-7.563,17.843l-35.585,5.431
	C1.842,120.666,0,124.156,0,127.064v43.052c0,3.298,1.842,6.401,5.139,6.983l35.246,5.234c1.939,6.595,4.534,12.994,7.83,19.199
	c-6.593,9.115-13.829,17.648-20.423,26.569c-0.969,1.356-1.582,2.714-1.582,4.46c0,1.551,0.373,3.102,1.342,4.459
	c8.146,11.25,21.712,23.272,31.991,32.582c1.357,1.357,3.099,2.133,4.845,2.133c1.745,0,3.488-0.582,4.846-1.746l27.343-20.75
	c5.624,2.908,11.441,5.236,17.453,7.176l5.43,35.724c0.388,3.297,3.491,5.86,6.981,5.86h43.052c3.491,0,6.207-2.37,6.982-5.473
	c3.102-11.635,4.266-24.262,5.623-36.09c6.012-1.939,12.023-4.472,17.648-7.381l26.762,20.939c1.551,0.971,3.297,1.743,5.042,1.743
	c6.595,0,32.774-28.511,37.429-34.716c1.163-1.357,1.745-2.715,1.745-4.461s-0.775-3.491-1.939-4.849
	c-7.175-8.727-14.157-17.259-20.751-26.763c3.104-5.623,5.431-11.44,7.564-17.646l36.424-5.43c3.104-0.582,5.979-4.072,5.979-6.981
	V127.84C298,124.543,295.125,121.441,291.828,120.859z M148.646,221.846c-40.694,0-73.683-32.988-73.683-73.682
	c0-40.694,32.989-73.683,73.683-73.683s73.682,32.988,73.682,73.683C222.328,188.857,189.34,221.846,148.646,221.846z"/>
</svg>
