<?xml version="1.0" encoding="utf-8"?>
<!-- Generator: Adobe Illustrator 16.0.0, SVG Export Plug-In . SVG Version: 6.00 Build 0)  -->
<!DOCTYPE svg PUBLIC "-//W3C//DTD SVG 1.1//EN" "http://www.w3.org/Graphics/SVG/1.1/DTD/svg11.dtd">
<svg version="1.1" id="Layer_1" xmlns="http://www.w3.org/2000/svg" xmlns:xlink="http://www.w3.org/1999/xlink" x="0px" y="0px"
	 width="316.475px" height="296.073px" viewBox="0 0 316.475 296.073" enable-background="new 0 0 316.475 296.073"
	 xml:space="preserve">
<path fill="#FFFFFF" d="M158.236,0C70.834,0,0,64.011,0,142.99c0,39.477,17.695,75.207,46.309,101.08
	c-1.014,3.676-10.686,36.771-33.529,52.003c0,0,43.469-0.577,61.404-26.176c1.074-1.534,1.906-2.971,2.547-4.329
	c23.807,12.952,51.688,20.411,81.506,20.411c87.402,0,158.238-64.005,158.238-142.989C316.475,64.011,245.639,0,158.236,0z
	 M89.238,168.995c-11.414,0-20.668-9.253-20.668-20.667s9.254-20.667,20.668-20.667s20.666,9.253,20.666,20.667
	S100.652,168.995,89.238,168.995z M158.238,168.703c-11.414,0-20.668-9.253-20.668-20.667s9.254-20.667,20.668-20.667
	s20.666,9.253,20.666,20.667S169.652,168.703,158.238,168.703z M227.238,168.703c-11.414,0-20.668-9.252-20.668-20.666
	s9.254-20.668,20.668-20.668s20.666,9.254,20.666,20.668S238.652,168.703,227.238,168.703z"/>
</svg>
