<?xml version="1.0" encoding="utf-8"?>
<!-- Generator: Adobe Illustrator 16.0.0, SVG Export Plug-In . SVG Version: 6.00 Build 0)  -->
<!DOCTYPE svg PUBLIC "-//W3C//DTD SVG 1.1//EN" "http://www.w3.org/Graphics/SVG/1.1/DTD/svg11.dtd">
<svg version="1.1" id="Layer_1" xmlns="http://www.w3.org/2000/svg" xmlns:xlink="http://www.w3.org/1999/xlink" x="0px" y="0px"
	 width="275.937px" height="297.848px" viewBox="0 0 275.937 297.848" enable-background="new 0 0 275.937 297.848"
	 xml:space="preserve">
<g>
	<rect x="125.231" fill="#FFFFFF" width="32" height="136"/>
	<path fill="#FFFFFF" d="M176.231,26.561v37.666c33,14.771,62.9,51.939,62.9,95.473c0,56.523-47.166,102.334-103.692,102.334
		c-56.525,0-98.972-45.811-98.972-102.334c0-44.59,36.764-82.516,71.764-96.529V25.801C40.231,40.906,0,95.127,0,159.699
		c0,76.314,59.834,138.148,136.116,138.148s139.82-61.834,139.82-138.148C275.937,96.146,244.231,42.658,176.231,26.561z"/>
	<rect x="125.231" fill="#FFFFFF" width="32" height="136"/>
	<path fill="#FFFFFF" d="M176.231,26.561v37.666c33,14.771,62.9,51.939,62.9,95.473c0,56.523-47.166,102.334-103.692,102.334
		c-56.525,0-98.972-45.811-98.972-102.334c0-44.59,36.764-82.516,71.764-96.529V25.801C40.231,40.906,0,95.127,0,159.699
		c0,76.314,59.834,138.148,136.116,138.148s139.82-61.834,139.82-138.148C275.937,96.146,244.231,42.658,176.231,26.561z"/>
</g>
</svg>
