<?xml version="1.0" encoding="utf-8"?>
<!-- Generator: Adobe Illustrator 16.0.0, SVG Export Plug-In . SVG Version: 6.00 Build 0)  -->
<!DOCTYPE svg PUBLIC "-//W3C//DTD SVG 1.1//EN" "http://www.w3.org/Graphics/SVG/1.1/DTD/svg11.dtd">
<svg version="1.1" id="Layer_1" xmlns="http://www.w3.org/2000/svg" xmlns:xlink="http://www.w3.org/1999/xlink" x="0px" y="0px"
	 width="78px" height="78px" viewBox="0 0 78 78" enable-background="new 0 0 78 78" xml:space="preserve">
<path fill="#FFFFFF" d="M34.547,14.316c-17.44,0-31.777,14.139-31.777,31.579C2.77,55.201,7,63.564,13,69.344v7.717
	c3-1.217,6.518-1.494,9.746-1.848C23.139,75.17,23,75.131,24,75.088V72h3v2.764c3-0.303,6.195-0.564,9.216-0.715
	C38.415,73.941,40,74.01,43,74.209V73h3v1.582c0,0.111,1.001,0.234,1.751,0.373C50.396,75.447,53,76.125,55,77.244v-7.9
	c7-5.779,10.779-14.143,10.779-23.449C65.779,28.455,51.987,14.316,34.547,14.316z M45.41,38.757c3.028,0,5.486,2.454,5.486,5.485
	c0,3.029-2.458,5.486-5.486,5.486c-3.03,0-5.486-2.457-5.486-5.486C39.924,41.211,42.38,38.757,45.41,38.757z M34.547,51.189
	c1.412-0.1,3.639,2.842,4.168,4.119c0.572,1.369-0.076,2.945-1.447,3.518c-0.941,0.391-1.977,0.209-2.721-0.387
	c-0.741,0.596-1.777,0.777-2.721,0.387c-1.37-0.572-2.02-2.148-1.447-3.518C30.91,54.031,33.136,51.09,34.547,51.189z
	 M22.648,30.958c5.182,0,9.383,4.202,9.383,9.383c0,5.184-4.201,9.387-9.383,9.387c-5.183,0-9.386-4.203-9.386-9.387
	C13.263,35.161,17.466,30.958,22.648,30.958z"/>
<g>
	<path fill="#363636" d="M34.773,4.297c0,0,3.931-5.806,14.299-2.552c10.371,3.249,10.59,10.612,10.59,10.612L55.93,24.263
		l-25.098-7.4L34.773,4.297z"/>
	
		<rect x="25.592" y="21.676" transform="matrix(0.9542 0.2992 -0.2992 0.9542 9.2595 -11.3371)" fill="#A21E22" width="32.113" height="5.781"/>
	<path fill="#5A5A5A" d="M10.226,7.01c0,0-1.36-0.556,8.968-1.668c0,0,3.463-0.835,7.447-2.527c0,0,6.939-2.942,9.764,1.719
		c0,0,1.969,3.209,0.555,3.947c0,0,1.797,10.386,6.138,11.747s11.93-6.721,11.93-6.721s4.839-4.817,9.349,0.18
		c4.512,4.998,5.102,7.808,9.885,10.715c0,0,3.877,3.966,3.024,4.851c-0.854,0.884-9.308,4.375-20.063,0.108
		c0,0-20.208-11.662-32.126-9.986l-4.215-1.32C20.881,18.054,6.93,10.178,10.226,7.01z"/>
	<g>
		<path fill="#FFFFFF" d="M47.729,6.696c-1.225-0.382-2.527,0.297-2.912,1.521c-0.204,0.654-0.104,1.329,0.217,1.876l0.019-0.063
			l2.97,0.93l-0.02,0.063c0.578-0.265,1.043-0.763,1.248-1.417C49.634,8.383,48.952,7.08,47.729,6.696z M46.114,8.919
			c-0.362-0.113-0.565-0.502-0.452-0.864c0.113-0.365,0.502-0.566,0.865-0.452s0.565,0.5,0.452,0.864
			C46.865,8.832,46.477,9.033,46.114,8.919z M46.939,9.879c-0.072,0.008-0.142-0.027-0.18-0.087
			c-0.066,0.024-0.144,0.016-0.201-0.032c-0.084-0.07-0.095-0.195-0.023-0.279c0.066-0.076,0.285-0.234,0.382-0.196
			c0.103,0.023,0.193,0.277,0.203,0.38C47.13,9.775,47.049,9.869,46.939,9.879z M47.713,9.419c-0.213-0.065-0.332-0.293-0.265-0.505
			c0.067-0.213,0.294-0.331,0.506-0.263c0.212,0.065,0.33,0.291,0.265,0.504C48.151,9.37,47.925,9.488,47.713,9.419z"/>
		<path fill="#FFFFFF" d="M47.051,11.536c-0.029-0.014-0.061-0.023-0.089-0.034l-0.058,0.185l-0.219-0.067l0.063-0.199
			c-0.16-0.06-0.32-0.113-0.486-0.16c-0.206-0.058-0.415-0.111-0.622-0.166l-0.053,0.175l-0.223-0.069l0.051-0.161
			c0.022,0.004,0.045,0.01,0.064,0.013c-0.034-0.009-0.07-0.019-0.105-0.028c-0.24-0.06-0.486-0.129-0.717-0.143l-0.18,0.567
			l2.97,0.931l0.176-0.56C47.452,11.709,47.254,11.619,47.051,11.536z"/>
		<path fill="#FFFFFF" d="M45.041,10.014l-0.193,0.614c0.237-0.019,0.475,0.034,0.711,0.081c0.025,0.006,0.049,0.012,0.076,0.016
			l0,0h-0.001l0.072-0.231l0.223,0.069l-0.003,0.004h0.003l-0.065,0.204c0.221,0.046,0.439,0.096,0.656,0.151
			c0.18,0.046,0.355,0.109,0.523,0.185c-0.021-0.01-0.045-0.021-0.066-0.03l0.053-0.168l0.217,0.067l-0.061,0.195
			c-0.008-0.005-0.014-0.006-0.021-0.01c0.059,0.028,0.114,0.056,0.17,0.084c0.176,0.094,0.348,0.2,0.495,0.332l0.196-0.629
			L45.041,10.014z"/>
	</g>
	<g>
		<path fill="#FFFFFF" d="M41.971,13.978c0.082,0.176,0.289,0.249,0.463,0.168c0.101-0.047,0.277-0.18,0.395-0.318l5.586-0.259
			c0.129,0.125,0.316,0.241,0.42,0.28c0.182,0.065,0.383-0.027,0.448-0.211c0.044-0.123,0.015-0.257-0.067-0.35
			c0.073-0.1,0.091-0.235,0.035-0.354c-0.082-0.176-0.292-0.251-0.466-0.168c-0.099,0.046-0.276,0.18-0.394,0.318l-5.586,0.259
			c-0.129-0.126-0.316-0.243-0.42-0.28c-0.182-0.065-0.383,0.027-0.449,0.21c-0.045,0.125-0.015,0.257,0.068,0.35
			C41.931,13.723,41.913,13.859,41.971,13.978z"/>
		<path fill="#FFFFFF" d="M48.3,15.962c-0.168,0.098-0.382,0.039-0.479-0.127c-0.053-0.095-0.123-0.305-0.139-0.486l-4.438-3.402
			c-0.181,0.029-0.399,0.018-0.504-0.01c-0.187-0.051-0.3-0.241-0.249-0.429c0.033-0.127,0.133-0.22,0.255-0.249
			c-0.002-0.123,0.06-0.245,0.176-0.311c0.165-0.096,0.38-0.039,0.478,0.128c0.053,0.097,0.122,0.305,0.141,0.486l4.436,3.401
			c0.18-0.03,0.4-0.02,0.507,0.01c0.187,0.051,0.297,0.241,0.247,0.429c-0.033,0.128-0.133,0.22-0.255,0.249
			C48.477,15.776,48.414,15.897,48.3,15.962z"/>
	</g>
</g>
</svg>
